<svg xmlns="http://www.w3.org/2000/svg" role="img" aria-label="Artivis logo" width="2172" height="724" viewBox="0 0 2172 724" version="1.1">
  <title>Artivis logo white</title>
  <path shape-rendering="geometricPrecision" d="M 1675.653 271.115 C 1657.120 272.538, 1637.858 278.076, 1626.605 285.217 C 1609.189 296.270, 1600.159 312.222, 1601.256 330 C 1602.783 354.740, 1620.075 370.202, 1653.698 376.891 C 1659.089 377.963, 1670.250 379.573, 1678.500 380.469 C 1724.839 385.499, 1731.100 386.517, 1739.491 390.380 C 1749.077 394.794, 1752.931 401.021, 1751.710 410.125 C 1750.149 421.760, 1736.365 430.011, 1713.365 433.077 C 1700.614 434.776, 1668.314 433.687, 1655.898 431.138 C 1637.199 427.301, 1623.652 421.867, 1610.250 412.828 L 1603 407.939 1603 424.336 L 1603 440.732 1610.250 443.976 C 1626.630 451.304, 1645.103 456.303, 1666 459.062 C 1679.228 460.809, 1711.970 460.583, 1725 458.654 C 1751.810 454.686, 1772.658 444.994, 1782.698 431.831 C 1787.881 425.036, 1789.465 421.855, 1791.419 414.311 C 1795.771 397.519, 1790.813 379.251, 1779.086 368.867 C 1765.783 357.088, 1749.496 352.554, 1704 347.962 C 1660.097 343.531, 1647.409 339.703, 1642.527 329.416 C 1640.089 324.277, 1640.872 317.168, 1644.383 312.564 C 1652.935 301.352, 1679.871 295.539, 1711.725 298.032 C 1736.090 299.938, 1754.838 304.746, 1768.687 312.638 C 1772.897 315.037, 1776.490 317, 1776.671 317 C 1776.852 317, 1777 310.222, 1777 301.937 L 1777 286.875 1770.750 284.053 C 1746.086 272.918, 1712.203 268.309, 1675.653 271.115 M 510.860 290.263 C 499.151 308.132, 406.651 450.148, 404.375 453.750 L 402.954 456 422.873 456 L 442.792 456 446.104 450.750 C 447.926 447.863, 453.303 439.425, 458.052 432 C 462.801 424.575, 477.404 401.625, 490.502 381 C 503.601 360.375, 515.320 342.008, 516.546 340.184 L 518.774 336.869 525.230 347.184 C 528.781 352.858, 541.786 373.475, 554.131 393 C 566.475 412.525, 580.394 434.575, 585.062 442 L 593.550 455.500 616.275 455.769 C 628.774 455.917, 639 455.742, 639 455.380 C 639 455.018, 626.513 435.369, 611.250 411.714 C 595.987 388.060, 569.983 347.541, 553.462 321.674 C 536.941 295.806, 522.991 274.503, 522.462 274.333 C 521.933 274.164, 516.712 281.332, 510.860 290.263 M 681.667 274.667 C 681.300 275.033, 681 315.983, 681 365.667 L 681 456 701 456 L 721 456 721 378.500 L 721 301 762.951 301 C 807.213 301, 811.473 301.344, 820.702 305.665 C 826.964 308.596, 834.165 316.269, 835.811 321.764 C 839.832 335.184, 833.798 349.021, 821.128 355.432 C 811.917 360.093, 810.010 360.315, 774.025 360.920 L 739.550 361.500 761.025 381.106 C 772.836 391.889, 796.149 413.151, 812.831 428.356 L 843.162 456 871.308 456 L 899.455 456 896.977 453.620 C 894.702 451.433, 855.275 416.524, 829.733 394.078 C 823.835 388.896, 819.191 384.476, 819.412 384.255 C 819.633 384.034, 823.093 383.175, 827.101 382.345 C 848.907 377.832, 865.599 366.520, 873.367 350.993 C 888.501 320.743, 870.845 288.040, 834 278.076 C 829.875 276.961, 822.450 275.591, 817.500 275.032 C 807.592 273.914, 682.755 273.578, 681.667 274.667 M 913 287.495 L 913 301 955 301 L 997 301 997 378.500 L 997 456 1017 456 L 1037 456 1037 378.500 L 1037 301 1079.529 301 L 1122.058 301 1121.779 287.750 L 1121.500 274.500 1017.250 274.245 L 913 273.991 913 287.495 M 1163 364.979 L 1163 456 1183.005 456 L 1203.011 456 1202.755 365.250 L 1202.500 274.500 1182.750 274.229 L 1163 273.958 1163 364.979 M 1240 274.536 C 1240 274.831, 1242.634 279.218, 1245.853 284.286 C 1249.072 289.354, 1258.219 304.075, 1266.179 317 C 1274.138 329.925, 1292.148 358.950, 1306.200 381.500 C 1320.253 404.050, 1336.882 430.825, 1343.155 441 L 1354.561 459.500 1358.115 459.800 L 1361.669 460.101 1406.701 389.300 C 1461.611 302.972, 1479 275.384, 1479 274.599 C 1479 274.270, 1470.722 274, 1460.604 274 L 1442.207 274 1403.432 336.500 C 1382.106 370.875, 1364.397 398.995, 1364.078 398.989 C 1363.570 398.980, 1314.698 319.421, 1294.832 286.263 L 1287.500 274.025 1263.750 274.013 C 1250.688 274.006, 1240 274.241, 1240 274.536 M 1514.687 274.646 C 1514.309 275.024, 1514 315.983, 1514 365.667 L 1514 456 1534.505 456 L 1555.011 456 1554.755 365.250 L 1554.500 274.500 1534.937 274.229 C 1524.178 274.081, 1515.065 274.268, 1514.687 274.646 M 508.292 437.285 L 498.180 454.500 508.645 454.784 C 514.400 454.941, 523.548 454.941, 528.973 454.784 L 538.837 454.500 528.830 437.500 C 523.326 428.150, 518.728 420.403, 518.613 420.285 C 518.498 420.167, 513.853 427.817, 508.292 437.285" stroke="none" fill="#ffffff" fill-rule="evenodd"/>
</svg>